<svg width="12" height="16" viewBox="0 0 12 16" fill="none" xmlns="http://www.w3.org/2000/svg">
<mask id="mask0_36_21" style="mask-type:alpha" maskUnits="userSpaceOnUse" x="0" y="0" width="12" height="16">
<path fill-rule="evenodd" clip-rule="evenodd" d="M6 0C7.06087 0 8.07828 0.421427 8.82843 1.17157C9.57857 1.92172 10 2.93913 10 4V6.05C10.5647 6.16527 11.0722 6.47209 11.4367 6.91855C11.8011 7.36501 12.0001 7.92367 12 8.5V13.5C12 14.163 11.7366 14.7989 11.2678 15.2678C10.7989 15.7366 10.163 16 9.5 16H2.5C1.83696 16 1.20107 15.7366 0.732233 15.2678C0.263392 14.7989 5.21142e-08 14.163 5.21142e-08 13.5V8.5C-0.000117575 7.92367 0.198892 7.36501 0.563347 6.91855C0.927802 6.47209 1.43532 6.16527 2 6.05V4C2 2.93913 2.42143 1.92172 3.17157 1.17157C3.92172 0.421427 4.93913 0 6 0ZM6 1C5.20435 1 4.44129 1.31607 3.87868 1.87868C3.31607 2.44129 3 3.20435 3 4V6H9V4C9 3.20435 8.68393 2.44129 8.12132 1.87868C7.55871 1.31607 6.79565 1 6 1Z" fill="black"/>
</mask>
<g mask="url(#mask0_36_21)">
<rect x="-2" width="16" height="16" fill="url(#paint0_linear_36_21)"/>
</g>
<defs>
<linearGradient id="paint0_linear_36_21" x1="9.92064" y1="-4.24651e-07" x2="-2.69134" y2="6.04244" gradientUnits="userSpaceOnUse">
<stop stop-color="#47E0FF"/>
<stop offset="1" stop-color="#0099CC"/>
</linearGradient>
</defs>
</svg>
