<svg width="13" height="14" viewBox="0 0 13 14" fill="none" xmlns="http://www.w3.org/2000/svg">
<mask id="mask0_36_22" style="mask-type:alpha" maskUnits="userSpaceOnUse" x="0" y="0" width="13" height="14">
<path d="M9 3C9 3.79565 8.68393 4.55871 8.12132 5.12132C7.55871 5.68393 6.79565 6 6 6C5.20435 6 4.44129 5.68393 3.87868 5.12132C3.31607 4.55871 3 3.79565 3 3C3 2.20435 3.31607 1.44129 3.87868 0.87868C4.44129 0.316071 5.20435 0 6 0C6.79565 0 7.55871 0.316071 8.12132 0.87868C8.68393 1.44129 9 2.20435 9 3ZM0 11C0 12 1 12 1 12H6V11C5.99999 10.9332 6.00333 10.8665 6.01 10.8C5.96297 10.1078 6.07701 9.41405 6.34317 8.77329C6.60932 8.13254 7.02035 7.56219 7.544 7.107C7.07733 7.037 6.56267 7.00133 6 7C1 7 0 10 0 11ZM7 11C7 10.7348 7.10536 10.4804 7.29289 10.2929C7.48043 10.1054 7.73478 10 8 10V9C8 8.46957 8.21071 7.96086 8.58579 7.58579C8.96086 7.21071 9.46957 7 10 7C10.5304 7 11.0391 7.21071 11.4142 7.58579C11.7893 7.96086 12 8.46957 12 9V10C12.2652 10 12.5196 10.1054 12.7071 10.2929C12.8946 10.4804 13 10.7348 13 11V13C13 13.2652 12.8946 13.5196 12.7071 13.7071C12.5196 13.8946 12.2652 14 12 14H8C7.73478 14 7.48043 13.8946 7.29289 13.7071C7.10536 13.5196 7 13.2652 7 13V11ZM10 8C9.73478 8 9.48043 8.10536 9.29289 8.29289C9.10536 8.48043 9 8.73478 9 9V10H11V9C11 8.73478 10.8946 8.48043 10.7071 8.29289C10.5196 8.10536 10.2652 8 10 8Z" fill="black"/>
</mask>
<g mask="url(#mask0_36_22)">
<rect x="-2" y="-1" width="16" height="16" fill="url(#paint0_linear_36_22)"/>
</g>
<defs>
<linearGradient id="paint0_linear_36_22" x1="9.92064" y1="-1" x2="-2.69134" y2="5.04244" gradientUnits="userSpaceOnUse">
<stop stop-color="#47E0FF"/>
<stop offset="1" stop-color="#0099CC"/>
</linearGradient>
</defs>
</svg>
